#Comment line ignore any data following # character 
#Hierarchical Translation and Rotation (.htr) file 
[Header]	
#Header keywords are followed by a single value 
FileType HTR		#Single word string
DataType HTRS		#Translation followed by rotation and scale data
FileVersion 1		#integer
NumSegments 84		#integer
NumFrames 2		#integer
DataFrameRate 30		#integer, data frame rate in this file
EulerRotationOrder ZYX
CalibrationUnits mm
RotationUnits Degrees
GlobalAxisofGravity Y
BoneLengthAxis Y
ScaleFactor 1.00
[SegmentNames&Hierarchy]
#CHILD	PARENT
MASTER GLOBAL
root MASTER
chest root
L_mid_tent01 root
R_mid_tent01 root
spine01 root
Bip01_Neck chest
L_humerus chest
R_humerus chest
weapon_bone chest
Bip01_Head Bip01_Neck
eye_left_bone Bip01_Head
eye_right_bone Bip01_Head
L_forearm L_humerus
L_front_hand L_forearm
L_weapon_bone L_forearm
L_front_hand01_01 L_front_hand
L_front_hand02_01 L_front_hand
L_front_hand03_01 L_front_hand
L_front_hand01_02 L_front_hand01_01
L_front_hand02_02 L_front_hand02_01
L_front_hand03_02 L_front_hand03_01
R_forearm R_humerus
R_front_hand R_forearm
R_weapon_bone R_forearm
R_front_hand01_01 R_front_hand
R_front_hand02_01 R_front_hand
R_front_hand03_01 R_front_hand
R_front_hand01_02 R_front_hand01_01
R_front_hand02_02 R_front_hand02_01
R_front_hand03_02 R_front_hand03_01
null_rope01_connect L_mid_tent01
Rope1_Seg01 null_rope01_connect
Rope1_Seg02 Rope1_Seg01
Rope1_Seg03 Rope1_Seg02
Rope1_Seg04 Rope1_Seg03
Rope1_Seg05 Rope1_Seg04
Rope1_Seg06 Rope1_Seg05
Rope1_Seg07 Rope1_Seg06
Rope1_Seg09 Rope1_Seg07
L_mid_hand01 Rope1_Seg09
L_mid_hand02 Rope1_Seg09
L_mid_hand03 Rope1_Seg09
null_rope02_connect R_mid_tent01
Rope2_Seg01 null_rope02_connect
Rope2_Seg02 Rope2_Seg01
Rope2_Seg03 Rope2_Seg02
Rope2_Seg04 Rope2_Seg03
Rope2_Seg05 Rope2_Seg04
Rope2_Seg06 Rope2_Seg05
Rope2_Seg07 Rope2_Seg06
Rope2_Seg09 Rope2_Seg07
R_mid_hand01 Rope2_Seg09
R_mid_hand02 Rope2_Seg09
R_mid_hand03 Rope2_Seg09
spine02 spine01
spine03 spine02
pelvis spine03
null_rope03_connect pelvis
null_rope04_connect pelvis
Rope3_Seg01 null_rope03_connect
Rope3_Seg02 Rope3_Seg01
Rope3_Seg03 Rope3_Seg02
Rope3_Seg04 Rope3_Seg03
Rope3_Seg05 Rope3_Seg04
Rope3_Seg06 Rope3_Seg05
Rope3_Seg07 Rope3_Seg06
Rope3_Seg08 Rope3_Seg07
Rope3_Seg09 Rope3_Seg08
R_rear_hand01 Rope3_Seg09
R_rear_hand02 Rope3_Seg09
R_rear_hand03 Rope3_Seg09
Rope4_Seg01 null_rope04_connect
Rope4_Seg02 Rope4_Seg01
Rope4_Seg03 Rope4_Seg02
Rope4_Seg04 Rope4_Seg03
Rope4_Seg05 Rope4_Seg04
Rope4_Seg06 Rope4_Seg05
Rope4_Seg07 Rope4_Seg06
Rope4_Seg08 Rope4_Seg07
Rope4_Seg09 Rope4_Seg08
L_rear_hand01 Rope4_Seg09
L_rear_hand02 Rope4_Seg09
L_rear_hand03 Rope4_Seg09
[BasePosition]
#SegmentName Tx, Ty, Tz, Rx, Ry, Rz, BoneLength
MASTER 0.000000 0.000000 0.000000 -90.000000 0.000000 0.000000 10.000000 
root 0.000000 0.000000 0.000000 0.000000 0.000000 0.000000 10.000000 
chest 0.000000 0.000000 0.000000 0.000000 0.000000 0.000000 10.000000 
L_mid_tent01 0.000000 0.000000 0.000000 0.000000 0.000000 0.000000 10.000000 
R_mid_tent01 0.000000 0.000000 0.000000 0.000000 0.000000 0.000000 10.000000 
spine01 0.000000 0.000000 0.000000 0.000000 0.000000 0.000000 10.000000 
Bip01_Neck 0.000000 0.000000 0.000000 0.000000 0.000000 0.000000 10.000000 
L_humerus 0.000000 0.000000 0.000000 0.000000 0.000000 0.000000 10.000000 
R_humerus 0.000000 0.000000 0.000000 0.000000 0.000000 0.000000 10.000000 
weapon_bone 0.000000 0.000000 0.000000 0.000000 0.000000 0.000000 10.000000 
Bip01_Head 0.000000 0.000000 0.000000 0.000000 0.000000 0.000000 10.000000 
eye_left_bone 0.000000 0.000000 0.000000 0.000000 0.000000 0.000000 10.000000 
eye_right_bone 0.000000 0.000000 0.000000 0.000000 0.000000 0.000000 10.000000 
L_forearm 0.000000 0.000000 0.000000 0.000000 0.000000 0.000000 10.000000 
L_front_hand 0.000000 0.000000 0.000000 0.000000 0.000000 0.000000 10.000000 
L_weapon_bone 0.000000 0.000000 0.000000 0.000000 0.000000 0.000000 10.000000 
L_front_hand01_01 0.000000 0.000000 0.000000 0.000000 0.000000 0.000000 10.000000 
L_front_hand02_01 0.000000 0.000000 0.000000 0.000000 0.000000 0.000000 10.000000 
L_front_hand03_01 0.000000 0.000000 0.000000 0.000000 0.000000 0.000000 10.000000 
L_front_hand01_02 0.000000 0.000000 0.000000 0.000000 0.000000 0.000000 10.000000 
L_front_hand02_02 0.000000 0.000000 0.000000 0.000000 0.000000 0.000000 10.000000 
L_front_hand03_02 0.000000 0.000000 0.000000 0.000000 0.000000 0.000000 10.000000 
R_forearm 0.000000 0.000000 0.000000 0.000000 0.000000 0.000000 10.000000 
R_front_hand 0.000000 0.000000 0.000000 0.000000 0.000000 0.000000 10.000000 
R_weapon_bone 0.000000 0.000000 0.000000 0.000000 0.000000 0.000000 10.000000 
R_front_hand01_01 0.000000 0.000000 0.000000 0.000000 0.000000 0.000000 10.000000 
R_front_hand02_01 0.000000 0.000000 0.000000 0.000000 0.000000 0.000000 10.000000 
R_front_hand03_01 0.000000 0.000000 0.000000 0.000000 0.000000 0.000000 10.000000 
R_front_hand01_02 0.000000 0.000000 0.000000 0.000000 0.000000 0.000000 10.000000 
R_front_hand02_02 0.000000 0.000000 0.000000 0.000000 0.000000 0.000000 10.000000 
R_front_hand03_02 0.000000 0.000000 0.000000 0.000000 0.000000 0.000000 10.000000 
null_rope01_connect 0.000000 0.000000 0.000000 0.000000 0.000000 0.000000 10.000000 
Rope1_Seg01 0.000000 0.000000 0.000000 0.000000 0.000000 0.000000 10.000000 
Rope1_Seg02 0.000000 0.000000 0.000000 0.000000 0.000000 0.000000 10.000000 
Rope1_Seg03 0.000000 0.000000 0.000000 0.000000 0.000000 0.000000 10.000000 
Rope1_Seg04 0.000000 0.000000 0.000000 0.000000 0.000000 0.000000 10.000000 
Rope1_Seg05 0.000000 0.000000 0.000000 0.000000 0.000000 0.000000 10.000000 
Rope1_Seg06 0.000000 0.000000 0.000000 0.000000 0.000000 0.000000 10.000000 
Rope1_Seg07 0.000000 0.000000 0.000000 0.000000 0.000000 0.000000 10.000000 
Rope1_Seg09 0.000000 0.000000 0.000000 0.000000 0.000000 0.000000 10.000000 
L_mid_hand01 0.000000 0.000000 0.000000 0.000000 0.000000 0.000000 10.000000 
L_mid_hand02 0.000000 0.000000 0.000000 0.000000 0.000000 0.000000 10.000000 
L_mid_hand03 0.000000 0.000000 0.000000 0.000000 0.000000 0.000000 10.000000 
null_rope02_connect 0.000000 0.000000 0.000000 0.000000 0.000000 0.000000 10.000000 
Rope2_Seg01 0.000000 0.000000 0.000000 0.000000 0.000000 0.000000 10.000000 
Rope2_Seg02 0.000000 0.000000 0.000000 0.000000 0.000000 0.000000 10.000000 
Rope2_Seg03 0.000000 0.000000 0.000000 0.000000 0.000000 0.000000 10.000000 
Rope2_Seg04 0.000000 0.000000 0.000000 0.000000 0.000000 0.000000 10.000000 
Rope2_Seg05 0.000000 0.000000 0.000000 0.000000 0.000000 0.000000 10.000000 
Rope2_Seg06 0.000000 0.000000 0.000000 0.000000 0.000000 0.000000 10.000000 
Rope2_Seg07 0.000000 0.000000 0.000000 0.000000 0.000000 0.000000 10.000000 
Rope2_Seg09 0.000000 0.000000 0.000000 0.000000 0.000000 0.000000 10.000000 
R_mid_hand01 0.000000 0.000000 0.000000 0.000000 0.000000 0.000000 10.000000 
R_mid_hand02 0.000000 0.000000 0.000000 0.000000 0.000000 0.000000 10.000000 
R_mid_hand03 0.000000 0.000000 0.000000 0.000000 0.000000 0.000000 10.000000 
spine02 0.000000 0.000000 0.000000 0.000000 0.000000 0.000000 10.000000 
spine03 0.000000 0.000000 0.000000 0.000000 0.000000 0.000000 10.000000 
pelvis 0.000000 0.000000 0.000000 0.000000 0.000000 0.000000 10.000000 
null_rope03_connect 0.000000 0.000000 0.000000 0.000000 0.000000 0.000000 10.000000 
null_rope04_connect 0.000000 0.000000 0.000000 0.000000 0.000000 0.000000 10.000000 
Rope3_Seg01 0.000000 0.000000 0.000000 0.000000 0.000000 0.000000 10.000000 
Rope3_Seg02 0.000000 0.000000 0.000000 0.000000 0.000000 0.000000 10.000000 
Rope3_Seg03 0.000000 0.000000 0.000000 0.000000 0.000000 0.000000 10.000000 
Rope3_Seg04 0.000000 0.000000 0.000000 0.000000 0.000000 0.000000 10.000000 
Rope3_Seg05 0.000000 0.000000 0.000000 0.000000 0.000000 0.000000 10.000000 
Rope3_Seg06 0.000000 0.000000 0.000000 0.000000 0.000000 0.000000 10.000000 
Rope3_Seg07 0.000000 0.000000 0.000000 0.000000 0.000000 0.000000 10.000000 
Rope3_Seg08 0.000000 0.000000 0.000000 0.000000 0.000000 0.000000 10.000000 
Rope3_Seg09 0.000000 0.000000 0.000000 0.000000 0.000000 0.000000 10.000000 
R_rear_hand01 0.000000 0.000000 0.000000 0.000000 0.000000 0.000000 10.000000 
R_rear_hand02 0.000000 0.000000 0.000000 0.000000 0.000000 0.000000 10.000000 
R_rear_hand03 0.000000 0.000000 0.000000 0.000000 0.000000 0.000000 10.000000 
Rope4_Seg01 0.000000 0.000000 0.000000 0.000000 0.000000 0.000000 10.000000 
Rope4_Seg02 0.000000 0.000000 0.000000 0.000000 0.000000 0.000000 10.000000 
Rope4_Seg03 0.000000 0.000000 0.000000 0.000000 0.000000 0.000000 10.000000 
Rope4_Seg04 0.000000 0.000000 0.000000 0.000000 0.000000 0.000000 10.000000 
Rope4_Seg05 0.000000 0.000000 0.000000 0.000000 0.000000 0.000000 10.000000 
Rope4_Seg06 0.000000 0.000000 0.000000 0.000000 0.000000 0.000000 10.000000 
Rope4_Seg07 0.000000 0.000000 0.000000 0.000000 0.000000 0.000000 10.000000 
Rope4_Seg08 0.000000 0.000000 0.000000 0.000000 0.000000 0.000000 10.000000 
Rope4_Seg09 0.000000 0.000000 0.000000 0.000000 0.000000 0.000000 10.000000 
L_rear_hand01 0.000000 0.000000 0.000000 0.000000 0.000000 0.000000 10.000000 
L_rear_hand02 0.000000 0.000000 0.000000 0.000000 0.000000 0.000000 10.000000 
L_rear_hand03 0.000000 0.000000 0.000000 0.000000 0.000000 0.000000 10.000000 
#Beginning of Data. Separated by tabs
#Fr	Tx	Ty	Tz	Rx	Ry	Rz	SF
[MASTER]
17 -0.000562 3791.159912 1746.535645 0.001660 0.001660 0.001660 4174.120117
18 -0.000616 4146.544434 1490.541016 0.001660 0.001660 0.001660 4406.307129
[root]
17 -112.889244 268.718140 1710.489868 -69.022079 -36.323956 -63.505447 1735.145142
18 -120.872818 296.179077 1714.971436 -75.144775 -42.652302 -55.051888 1744.551392
[chest]
17 -84.512650 -34.090519 0.000000 5.262309 -2.259597 170.783386 91.129311
18 -84.512650 -34.090519 0.000000 5.114799 -2.602436 174.532120 91.129311
[L_mid_tent01]
17 27.299366 22.178352 -249.918396 -31.260563 8.901027 15.392902 252.381332
18 27.299360 22.178410 -249.918411 -30.816492 7.618476 14.328163 252.381363
[R_mid_tent01]
17 23.228794 24.509907 226.238495 78.634369 -66.176788 173.806107 228.744751
18 23.228794 24.509907 226.238495 84.359222 -45.897560 167.849609 228.744751
[spine01]
17 -0.361383 -0.195265 0.000000 0.468225 0.192066 19.386187 0.410763
18 -0.361383 -0.195265 0.000000 0.445167 0.182302 19.512447 0.410763
[Bip01_Neck]
17 165.484543 71.581718 0.000119 175.896118 1.177290 24.871183 180.302734
18 165.484543 71.581718 0.000119 175.896118 1.177290 24.871183 180.302734
[L_humerus]
17 -13.983130 -135.272980 -120.471481 -85.540932 88.534462 4.541988 181.680161
18 -13.983130 -135.272980 -120.471481 -53.380024 88.147232 36.701122 181.680161
[R_humerus]
17 -13.983309 -135.273102 125.287651 89.078491 -14.681051 -3.931287 184.909012
18 -13.983309 -135.273102 125.287651 88.296913 -11.785517 -2.371213 184.909012
[weapon_bone]
17 235.964890 -300.705902 0.000000 0.000000 -89.951546 -128.212341 382.234833
18 235.964890 -300.705902 0.000000 0.000000 -89.951546 -128.212341 382.234833
[Bip01_Head]
17 241.021454 182.416702 -9.639080 -32.749310 5.844896 -62.457764 302.423737
18 240.143875 185.587173 -9.786987 -37.308117 5.844815 -62.457417 303.656799
[eye_left_bone]
17 -24.626970 125.451866 -64.772606 0.000000 -90.000000 -99.840431 143.318359
18 -24.626970 125.451866 -64.772606 0.000000 -90.000000 -99.840431 143.318359
[eye_right_bone]
17 -24.626970 125.451866 64.327362 0.000000 -89.960434 80.159386 143.117676
18 -24.626970 125.451866 64.327362 0.000000 -89.960434 80.159386 143.117676
[L_forearm]
17 322.776093 0.000000 -0.000119 0.000272 -0.002331 -103.296341 322.776093
18 322.776093 0.000000 -0.000119 0.000277 -0.002331 -103.577332 322.776093
[L_front_hand]
17 241.149185 -0.042021 -3.300071 -178.667953 -1.835447 -27.422350 241.171753
18 241.149185 -0.042021 -3.300071 -178.667953 -1.835447 -27.422342 241.171753
[L_weapon_bone]
17 156.183838 0.000000 0.000000 0.000014 0.000007 0.000001 156.183838
18 156.183838 0.000000 0.000000 0.000014 0.000007 0.000001 156.183838
[L_front_hand01_01]
17 86.095154 20.947098 -0.655860 -0.366594 -0.477154 75.385574 88.609184
18 86.095154 20.947098 -0.655860 -0.366594 -0.477154 75.385574 88.609184
[L_front_hand02_01]
17 86.935165 -11.437475 24.513514 154.403519 -59.888931 -61.371990 91.046425
18 86.935165 -11.437475 24.513514 154.403519 -59.888931 -61.371990 91.046425
[L_front_hand03_01]
17 86.637497 -14.123976 -20.424902 -153.913849 58.118122 -62.702866 90.126129
18 86.637497 -14.123976 -20.424902 -153.913849 58.118122 -62.702866 90.126129
[L_front_hand01_02]
17 71.020905 -0.000179 0.000030 0.000334 -0.002323 -106.379684 71.020905
18 71.020905 -0.000179 0.000030 0.000334 -0.002323 -106.379684 71.020905
[L_front_hand02_02]
17 71.020927 -0.000119 0.000060 0.000334 -0.002323 -106.379684 71.020927
18 71.020927 -0.000119 0.000060 0.000334 -0.002323 -106.379684 71.020927
[L_front_hand03_02]
17 71.020905 -0.000060 0.000060 0.000334 -0.002323 -106.379684 71.020905
18 71.020905 -0.000060 0.000060 0.000334 -0.002323 -106.379684 71.020905
[R_forearm]
17 322.776428 -0.000060 0.000030 -0.020765 -0.210394 4.127317 322.776428
18 322.776428 -0.000060 0.000030 -0.024824 -0.209954 6.340373 322.776428
[R_front_hand]
17 238.847015 -0.006795 2.210259 43.569859 0.333501 -3.108936 238.857239
18 238.847015 -0.006795 2.210259 115.722260 -0.096420 -5.330452 238.857239
[R_weapon_bone]
17 155.664093 0.002503 -0.000030 0.003487 0.001180 -90.988930 155.664078
18 155.664093 0.002503 -0.000030 0.003487 0.001180 -90.988930 155.664078
[R_front_hand01_01]
17 87.624611 14.231146 22.918642 -154.633499 -59.950634 61.746063 91.683487
18 87.624611 14.231146 22.918642 -154.633072 -59.950523 61.745552 91.683487
[R_front_hand02_01]
17 89.356956 14.367283 -19.491137 154.602661 58.302849 63.744389 92.579636
18 89.356956 14.367283 -19.491137 154.602280 58.302753 63.743923 92.579636
[R_front_hand03_01]
17 87.286232 -22.307278 -0.143439 0.162155 -0.423168 -75.767921 90.091743
18 87.286232 -22.307278 -0.143439 0.162153 -0.423169 -75.767654 90.091743
[R_front_hand01_02]
17 71.020905 0.000060 0.000119 0.001777 0.001534 8.377220 71.020905
18 71.020905 0.000060 0.000119 0.001777 0.001534 8.377220 71.020905
[R_front_hand02_02]
17 71.020844 -0.000030 -0.000119 0.001777 0.001534 8.377220 71.020836
18 71.020844 -0.000030 -0.000119 0.001777 0.001534 8.377220 71.020836
[R_front_hand03_02]
17 71.020905 0.000000 0.000030 0.001777 0.001534 8.377220 71.020905
18 71.020905 0.000000 0.000030 0.001777 0.001534 8.377220 71.020905
[null_rope01_connect]
17 328.732483 0.000000 -0.000238 115.929771 -67.789093 -5.158729 328.732483
18 328.732483 0.000000 -0.000238 119.322929 -62.845596 1.024991 328.732483
[Rope1_Seg01]
17 0.000000 0.000000 0.000000 24.809685 4.795302 -110.815048 0.000000
18 0.000000 0.000000 0.000000 23.499323 -5.230061 -105.616341 0.000000
[Rope1_Seg02]
17 139.999863 -0.000179 0.000000 89.959114 6.790467 -23.285044 139.999863
18 139.999863 -0.000179 0.000000 36.263336 5.302859 -22.160875 139.999863
[Rope1_Seg03]
17 139.999924 0.000060 -0.000060 41.552750 -15.588286 -4.920075 139.999924
18 139.999924 0.000060 -0.000060 62.008530 -7.610503 -16.762079 139.999924
[Rope1_Seg04]
17 139.999924 -0.000060 -0.000119 7.409893 -28.276140 15.843474 139.999924
18 139.999924 -0.000060 -0.000119 34.218536 -31.757736 -4.156807 139.999924
[Rope1_Seg05]
17 139.999832 0.000119 -0.000060 -1.411071 -20.163370 17.330732 139.999832
18 139.999832 0.000119 -0.000060 2.559799 -27.851742 14.615123 139.999832
[Rope1_Seg06]
17 139.999954 0.000119 -0.000060 -0.172418 -6.311144 5.402238 139.999954
18 139.999954 0.000119 -0.000060 0.139433 -8.010997 5.045533 139.999954
[Rope1_Seg07]
17 139.999985 0.000060 0.000000 -0.077063 -3.346168 2.864031 139.999985
18 139.999985 0.000060 0.000000 0.002946 -3.966614 2.535470 139.999985
[Rope1_Seg09]
17 121.602913 0.000119 -0.000089 -89.793175 -1.359789 0.847147 121.602913
18 121.602913 0.000119 -0.000089 -89.793175 -1.359789 0.847147 121.602913
[L_mid_hand01]
17 103.859421 1.038730 8.195221 114.520287 -53.310486 -20.623234 104.187431
18 103.859421 1.038730 8.195221 114.520287 -53.310486 -20.623234 104.187431
[L_mid_hand02]
17 105.572853 -4.139662 -10.864139 -155.067673 38.166626 -52.448818 106.211075
18 105.572853 -4.139662 -10.864139 -155.067673 38.166626 -52.448818 106.211075
[L_mid_hand03]
17 104.641464 17.579376 -3.913581 -10.970130 15.317461 57.626949 106.179977
18 104.641464 17.579376 -3.913581 -10.970130 15.317461 57.626949 106.179977
[null_rope02_connect]
17 328.732849 0.000179 -0.000119 -137.806534 -44.681637 38.259270 328.732849
18 328.732849 0.000179 -0.000119 -134.158798 -46.503242 64.475632 328.732849
[Rope2_Seg01]
17 0.000003 -0.000177 0.000066 49.524307 -52.704811 -68.416054 0.000189
18 0.000006 -0.000198 0.000070 -6.078358 -64.138329 -10.405806 0.000210
[Rope2_Seg02]
17 139.999741 -0.000060 -0.000119 -0.905031 -0.440853 4.126040 139.999756
18 139.999741 -0.000060 -0.000119 -0.038616 -1.051915 16.254198 139.999756
[Rope2_Seg03]
17 140.000107 0.000030 0.000000 -1.320057 -0.936038 7.665162 140.000107
18 140.000107 0.000030 0.000000 7.197773 -4.219307 39.042118 140.000107
[Rope2_Seg04]
17 139.999802 0.000000 -0.000060 -1.504145 -3.329844 21.255661 139.999802
18 139.999802 0.000000 -0.000060 18.661980 1.225813 35.898521 139.999802
[Rope2_Seg05]
17 139.999985 -0.000060 0.000119 10.160028 -10.196301 51.951481 139.999985
18 139.999985 -0.000060 0.000119 10.967817 15.820750 14.291376 139.999985
[Rope2_Seg06]
17 139.999893 -0.000030 -0.000119 21.779104 6.810488 31.188772 139.999893
18 139.999893 -0.000030 -0.000119 4.014679 13.511649 7.033988 139.999893
[Rope2_Seg07]
17 139.999893 0.000060 -0.000060 18.876225 22.960188 25.616829 139.999893
18 139.999893 0.000060 -0.000060 1.090837 6.544539 3.963549 139.999893
[Rope2_Seg09]
17 121.338966 0.000089 -0.000060 0.212516 0.548522 -1.505822 121.338966
18 121.338966 0.000089 -0.000060 82.988831 0.547565 -1.506202 121.338966
[R_mid_hand01]
17 104.680779 11.144459 -10.335981 -19.101976 44.310642 66.357697 105.778534
18 104.680779 11.144459 -10.335981 -21.017220 43.585693 63.601036 105.778534
[R_mid_hand02]
17 104.070427 2.443552 8.231699 53.483910 -65.365456 34.478851 104.424065
18 104.070427 2.443552 8.231699 56.043774 -63.638390 31.643208 104.424065
[R_mid_hand03]
17 106.028137 -11.221827 -5.996406 -176.256592 15.372275 -73.420364 106.788818
18 106.028137 -11.221827 -5.996406 -175.674561 15.224449 -71.231316 106.788818
[spine02]
17 129.756927 0.001550 0.000119 -0.260412 -14.408349 -4.278499 129.756927
18 129.756927 0.001550 0.000119 -0.276219 -14.702661 -4.187370 129.756927
[spine03]
17 78.557846 0.093943 -5.446131 1.036536 4.602864 4.791617 78.746460
18 78.557945 0.093816 -5.445233 1.084928 4.562066 5.391573 78.746490
[pelvis]
17 169.435242 0.051022 0.000000 -0.057990 -0.406060 7.035760 169.435257
18 169.435242 0.051022 0.000000 -0.058393 -0.393539 7.374441 169.435257
[null_rope03_connect]
17 -1.257226 -2.466202 137.391083 72.420959 -39.625526 25.291512 137.418976
18 -1.257226 -2.466202 137.391083 81.892494 -35.120777 21.715410 137.418976
[null_rope04_connect]
17 -1.259640 -2.480268 -137.844437 72.420959 -39.625526 25.291512 137.872513
18 -1.259640 -2.480268 -137.844437 81.892494 -35.120777 21.715410 137.872513
[Rope3_Seg01]
17 -0.000024 -0.000286 0.000000 -134.476242 -67.453468 -84.300903 0.000287
18 -0.000024 -0.000301 0.000000 -129.417480 -69.786369 -90.358826 0.000302
[Rope3_Seg02]
17 139.999924 -0.000119 0.000060 -0.899361 3.038747 -2.624840 139.999924
18 139.999924 -0.000119 0.000060 -0.699440 2.672959 -2.478516 139.999924
[Rope3_Seg03]
17 139.999924 -0.000119 0.000119 -1.536818 4.691302 -3.943049 139.999924
18 139.999924 -0.000119 0.000119 -1.202286 4.041569 -3.669014 139.999924
[Rope3_Seg04]
17 139.999924 0.000119 0.000000 -3.082121 8.182071 -6.580947 139.999924
18 139.999924 0.000119 0.000000 -2.439669 6.872064 -6.029853 139.999924
[Rope3_Seg05]
17 139.999924 -0.000238 0.000060 -5.282971 14.541343 -9.285387 139.999924
18 139.999924 -0.000238 0.000060 -4.701875 12.288076 -9.629845 139.999924
[Rope3_Seg06]
17 139.999893 -0.000119 -0.000060 -9.811977 24.408268 -17.055624 139.999893
18 139.999893 -0.000119 -0.000060 -8.690021 20.847294 -15.272756 139.999893
[Rope3_Seg07]
17 139.999771 0.000060 -0.000119 -17.880043 38.785263 -29.943621 139.999771
18 139.999771 0.000060 -0.000119 -17.403566 36.651089 -27.470663 139.999771
[Rope3_Seg08]
17 139.999985 -0.000060 0.000000 -2.098911 17.226402 -8.061707 139.999985
18 139.999985 -0.000060 0.000000 -3.728368 21.701473 -10.307221 139.999985
[Rope3_Seg09]
17 90.185997 -0.000179 -0.000060 70.093842 -1.359804 -0.849096 90.185997
18 90.185997 -0.000179 -0.000060 71.264023 -1.362587 -0.846860 90.185997
[R_rear_hand01]
17 103.366196 -6.073594 -10.757982 -156.049316 6.070419 -2.795869 104.101845
18 103.366196 -6.073594 -10.757982 -156.049316 6.070419 -2.795869 104.101845
[R_rear_hand02]
17 100.509819 12.039542 -7.992327 -38.708435 1.958051 5.461186 101.543350
18 100.509819 12.039542 -7.992327 -38.708439 1.958052 5.461187 101.543350
[R_rear_hand03]
17 101.539970 5.215704 5.435467 84.307632 -2.361033 4.099037 101.819031
18 101.539970 5.215704 5.435467 84.307632 -2.361033 4.099039 101.819031
[Rope4_Seg01]
17 -0.000011 -0.000307 -0.000153 22.273035 -61.544724 -64.538841 0.000343
18 -0.000010 -0.000322 -0.000153 11.698639 -61.630730 -52.840542 0.000356
[Rope4_Seg02]
17 139.999985 0.000060 0.000119 0.124426 -4.310782 -11.285573 139.999985
18 139.999985 0.000060 0.000119 0.630252 -6.804390 -8.634928 139.999985
[Rope4_Seg03]
17 139.999924 0.000000 -0.000238 -1.400051 -4.363041 -12.562337 139.999924
18 139.999924 0.000000 -0.000238 -0.192256 -7.659764 -9.786981 139.999924
[Rope4_Seg04]
17 139.999985 0.000000 0.000119 -2.879659 -0.150001 -9.762366 139.999985
18 139.999985 0.000000 0.000119 -1.685434 -4.801335 -9.011549 139.999985
[Rope4_Seg05]
17 139.999802 -0.000060 -0.000119 -2.995601 -4.942831 -10.590799 139.999802
18 139.999802 -0.000060 -0.000119 -1.798304 -5.956049 -7.657124 139.999802
[Rope4_Seg06]
17 139.999924 0.000000 0.000060 -12.893730 -17.132792 -25.692480 139.999924
18 139.999924 0.000000 0.000060 -3.920558 -15.764149 -14.540884 139.999924
[Rope4_Seg07]
17 139.999802 0.000000 0.000000 -52.178913 -9.152961 -29.432301 139.999802
18 139.999802 0.000000 0.000000 -50.928410 -21.592257 -24.855772 139.999802
[Rope4_Seg08]
17 139.999924 0.000000 0.000119 -26.099724 8.013993 -10.389946 139.999924
18 139.999924 0.000000 0.000119 -64.996300 4.168818 -17.005219 139.999924
[Rope4_Seg09]
17 90.185791 0.000060 0.000060 -135.617828 2.228885 0.850567 90.185791
18 90.185791 0.000060 0.000060 -135.617828 2.228885 0.850567 90.185791
[L_rear_hand01]
17 101.696655 -8.392275 -7.654577 -19.915020 -33.950905 119.950104 102.329041
18 101.696655 -8.392275 -7.654577 -19.915020 -33.950905 119.950104 102.329041
[L_rear_hand02]
17 102.726799 -1.568258 5.773216 77.862221 61.878510 165.399200 102.900848
18 102.726799 -1.568258 5.773216 77.862221 61.878510 165.399200 102.900848
[L_rear_hand03]
17 104.552910 9.721220 -10.420293 -173.099182 -23.740307 -117.327896 105.519653
18 104.552910 9.721220 -10.420293 -173.099182 -23.740307 -117.327896 105.519653
